<svg width="350" height="350" viewBox="0 0 350 350" fill="none" xmlns="http://www.w3.org/2000/svg">
<g clip-path="url(#clip0_217_61)">
<path d="M170.461 5.66012C170.543 8.80465 170.707 19.7968 170.789 30.1328L170.98 48.9453H173.277H175.602L175.438 46.539C175.355 45.2265 175.219 36.2304 175.137 26.5234C175.055 16.8164 174.918 6.89059 174.836 4.42965L174.645 -3.38517e-05H172.457H170.27L170.461 5.66012Z" fill="#F6FBD7"/>
<path d="M247.652 40.9609C241.691 51.7343 236.359 61.332 235.84 62.2617L234.91 63.957L236.797 65.0508L238.684 66.1445L239.203 65.2695C239.695 64.4765 262.281 23.8711 262.445 23.5156C262.5 23.3789 258.918 21.3281 258.645 21.3281C258.59 21.3281 253.641 30.1601 247.652 40.9609Z" fill="#F6FBD7"/>
<path d="M85.1758 24.8828C84.2461 25.457 83.5625 26.0859 83.6172 26.2773C83.7539 26.8789 108.637 67.5391 108.855 67.5391C109.184 67.5391 112.383 65.5703 112.383 65.3789C112.383 65.0781 87.2266 23.9258 87.0078 23.8711C86.8984 23.8438 86.0781 24.3086 85.1758 24.8828Z" fill="#F6FBD7"/>
<path d="M186.648 25.4843C186.402 26.5234 184.051 48.7812 184.133 48.8906C184.324 49.082 188.18 49.5195 188.316 49.3828C188.398 49.3007 189 44.2695 189.656 38.2265C190.312 32.1562 190.887 26.8242 190.969 26.332C191.105 25.3476 191.242 25.4296 188.07 25.0195C186.867 24.8554 186.758 24.9101 186.648 25.4843Z" fill="#F6FBD7"/>
<path d="M156.352 26.1679C155.613 26.25 155.312 26.414 155.312 26.7422C155.312 27.4804 158.348 49.875 158.457 50.0117C158.594 50.1211 162.422 49.5742 162.586 49.4101C162.668 49.3281 162.039 44.1328 161.191 37.8164C160.371 31.5273 159.688 26.2773 159.688 26.1679C159.688 25.9765 158.238 25.9765 156.352 26.1679Z" fill="#F6FBD7"/>
<path d="M202.234 27.8633C201.852 29.039 197.203 50.4492 197.285 50.5312C197.395 50.6679 201.359 51.6797 201.414 51.5976C201.605 51.4062 206.473 28.9023 206.391 28.6562C206.336 28.4922 205.406 28.1367 204.313 27.8906C202.535 27.4531 202.344 27.4531 202.234 27.8633Z" fill="#F6FBD7"/>
<path d="M141.313 28.6289C140.438 28.8476 139.727 29.1484 139.727 29.2578C139.727 29.668 144.922 52.0625 145.059 52.1719C145.195 52.3086 148.613 51.6523 148.996 51.4062C149.16 51.3242 148.203 46.6211 146.617 39.7031C143.637 26.7148 144.184 27.8633 141.313 28.6289Z" fill="#F6FBD7"/>
<path d="M217.52 31.1992C217.109 32.3476 210.574 53.0195 210.492 53.457C210.437 53.8672 210.766 54.0859 212.434 54.6054C213.555 54.9609 214.484 55.207 214.512 55.1797C214.676 54.9609 221.812 32.2383 221.73 32.1562C221.676 32.1289 220.883 31.8828 219.98 31.6093C219.078 31.3359 218.176 31.0351 218.012 30.9804C217.82 30.8984 217.602 31.0078 217.52 31.1992Z" fill="#F6FBD7"/>
<path d="M126.547 33.0039C125.508 33.3867 124.688 33.7969 124.688 33.9062C124.688 34.125 132.617 55.8633 132.727 56C132.836 56.082 136.473 54.7422 136.664 54.5508C136.828 54.3867 128.762 32.2656 128.543 32.293C128.461 32.293 127.559 32.6211 126.547 33.0039Z" fill="#F6FBD7"/>
<path d="M227.555 47.2227L222.879 58.1055L224.82 59.0078C225.887 59.5 226.844 59.8008 226.953 59.6914C227.09 59.5274 235.594 39.8398 236.168 38.3633C236.25 38.1445 235.703 37.7344 234.473 37.1875C233.461 36.75 232.559 36.3672 232.449 36.3672C232.34 36.3672 230.125 41.2617 227.555 47.2227Z" fill="#F6FBD7"/>
<path d="M112.109 38.8828C111.125 39.3203 110.305 39.7305 110.25 39.7852C110.195 39.8399 120.258 61.0039 120.422 61.168C120.449 61.2227 121.379 60.8125 122.445 60.293L124.414 59.3633L122.937 56.2735C118.398 46.6485 114.187 38.0078 114.051 38.0352C113.969 38.0352 113.094 38.418 112.109 38.8828Z" fill="#F6FBD7"/>
<path d="M253.012 61.0312L246.148 70.6562L247.762 71.832C248.637 72.4883 249.484 73.0078 249.621 73.0078C249.73 73.0078 252.93 68.7148 256.703 63.4375L263.566 53.8945L261.816 52.6367C260.859 51.9531 260.039 51.4062 259.984 51.4062C259.93 51.4336 256.812 55.7539 253.012 61.0312Z" fill="#F6FBD7"/>
<path d="M85.0391 54.9883C84.2188 55.5898 83.5625 56.2461 83.5625 56.4648C83.5898 56.8203 97.5352 75.1953 97.7812 75.1953C97.9727 75.1953 101.172 72.7343 101.172 72.5976C101.172 72.4062 86.9258 54.0039 86.7344 53.9218C86.5977 53.8945 85.8594 54.3593 85.0391 54.9883Z" fill="#F6FBD7"/>
<path d="M264.469 69.7812L256.758 78.6133L258.316 80.0625C259.164 80.8555 259.957 81.457 260.039 81.4297C260.148 81.375 263.703 77.3828 267.941 72.5156L275.625 63.7109L274.504 62.6992C273.164 61.4961 272.535 61.0039 272.316 60.9766C272.234 60.9766 268.707 64.9414 264.469 69.7812Z" fill="#F6FBD7"/>
<path d="M72.7617 65.1875L71.3125 66.6367L79.625 75.2773L87.9102 83.918L89.4961 82.3594L91.0547 80.8281L89.0586 78.75C87.9648 77.6289 84.2461 73.7734 80.8281 70.1914C77.3828 66.6367 74.4844 63.7109 74.4023 63.7109C74.293 63.7109 73.5547 64.3672 72.7617 65.1875Z" fill="#F6FBD7"/>
<path d="M275.078 79.5703C270.348 83.9179 266.438 87.6367 266.383 87.8281C266.355 88.0195 266.957 88.8125 267.75 89.6054L269.199 91L277.813 83.0703C282.543 78.7226 286.426 75.0586 286.426 74.9492C286.426 74.8398 285.824 74.0468 285.059 73.1992L283.691 71.6679L275.078 79.5703Z" fill="#F6FBD7"/>
<path d="M62.043 76.3163C61.2226 77.2734 60.7305 78.0663 60.8672 78.2031C61.6055 78.914 78.6406 93.2421 78.75 93.2421C78.9414 93.2421 81.5664 89.9609 81.457 89.8515C81.3203 89.7421 71.6133 81.539 66.9375 77.5742L63.4922 74.6484L62.043 76.3163Z" fill="#F6FBD7"/>
<path d="M288.203 87.6914C285.277 89.8789 281.039 92.9961 278.824 94.664L274.777 97.6445L275.625 98.7929C276.09 99.4218 276.664 100.215 276.938 100.543L277.402 101.172L286.836 94.1992C292.031 90.3711 296.297 87.1172 296.352 86.9531C296.488 86.5976 294.219 83.6718 293.836 83.6992C293.672 83.6992 291.129 85.5039 288.203 87.6914Z" fill="#F6FBD7"/>
<path d="M303.516 96.1406C292.168 102.812 282.789 108.391 282.652 108.527C282.461 108.719 283.691 111.234 284.539 112.328C284.621 112.465 325.664 88.375 326.184 87.8828C326.484 87.6093 326.375 87.2539 325.5 85.75C324.898 84.7656 324.379 83.9453 324.297 83.9726C324.215 83.9726 314.863 89.4414 303.516 96.1406Z" fill="#F6FBD7"/>
<path d="M52.2813 88.7852C51.625 89.7695 51.1875 90.6719 51.3242 90.7812C51.625 91.082 70.8203 103.633 70.9297 103.633C71.0938 103.633 73.336 100.051 73.2266 99.9687C73.1719 99.9141 55.6992 88.457 54.0039 87.3359C53.5117 87.0078 53.375 87.1172 52.2813 88.7852Z" fill="#F6FBD7"/>
<path d="M22.3125 89.3047C21.7383 90.2891 21.3828 91.2188 21.5196 91.3281C21.8203 91.6289 63.4649 115.117 63.6836 115.117C63.7657 115.117 64.3125 114.27 64.8594 113.258L65.8711 111.398L44.8164 99.5039C33.2227 92.9688 23.6797 87.6094 23.5703 87.5547C23.461 87.5273 22.8867 88.3203 22.3125 89.3047Z" fill="#F6FBD7"/>
<path d="M300.508 114.844C295.176 117.387 290.363 119.684 289.789 119.957L288.805 120.449L289.789 122.391L290.801 124.332L301.438 119.328C307.289 116.566 312.156 114.242 312.211 114.16C312.402 113.996 310.598 110.195 310.379 110.223C310.297 110.223 305.84 112.328 300.508 114.844Z" fill="#F6FBD7"/>
<path d="M37.5703 114.98C37.3789 115.5 36.9961 116.375 36.7773 116.949C36.5586 117.496 36.3945 117.961 36.4219 117.988C36.4766 118.016 40.4414 119.684 45.2539 121.68C50.0664 123.676 54.9336 125.727 56.082 126.219L58.1875 127.094L59.0351 125.152C59.5 124.086 59.8008 123.129 59.6914 123.02C59.418 122.773 38.582 114.023 38.2539 114.023C38.0898 114.023 37.7891 114.461 37.5703 114.98Z" fill="#F6FBD7"/>
<path d="M304.965 128.598C299.086 130.594 294.164 132.289 294.082 132.398C293.918 132.535 294.902 136.062 295.203 136.418C295.395 136.637 317.734 128.98 317.734 128.68C317.734 128.488 317.488 127.586 317.16 126.656C316.75 125.453 316.449 124.961 316.148 124.988C315.875 124.988 310.871 126.629 304.965 128.598Z" fill="#F6FBD7"/>
<path d="M31.7461 130.566C31.3906 131.715 31.1719 132.699 31.1992 132.754C31.4726 132.973 53.4297 139.453 53.6758 139.371C53.9492 139.289 55.3164 135.352 55.0703 135.352C54.9609 135.352 33.0859 128.762 32.6484 128.598C32.4844 128.543 32.1015 129.391 31.7461 130.566Z" fill="#F6FBD7"/>
<path d="M308.984 142.488C303.051 143.828 298.047 144.977 297.883 145.031C297.664 145.113 297.691 145.687 298.02 147.082C298.266 148.121 298.539 149.051 298.621 149.133C298.785 149.324 321.316 144.402 321.617 144.129C321.727 144.047 321.617 143.062 321.371 141.969C320.988 140.273 320.852 140 320.359 140.027C320.031 140.027 314.918 141.148 308.984 142.488Z" fill="#F6FBD7"/>
<path d="M28.3008 143.937C28.0547 144.676 27.3984 147.93 27.5078 147.93C27.5351 147.93 29.2851 148.285 31.3633 148.75C42.5742 151.156 50.6679 152.852 50.7226 152.797C50.8047 152.66 51.6523 148.613 51.5976 148.586C51.5429 148.531 47.6875 147.711 32.5937 144.512C29.6679 143.883 28.3554 143.719 28.3008 143.937Z" fill="#F6FBD7"/>
<path d="M311.473 156.707C305.402 157.445 300.398 158.074 300.344 158.129C300.18 158.266 300.562 161.793 300.754 162.121C300.891 162.312 304.609 161.984 312.539 161.027C318.91 160.289 324.16 159.633 324.187 159.605C324.215 159.578 324.105 158.594 323.941 157.418C323.723 155.531 323.641 155.312 323.094 155.34C322.793 155.367 317.543 155.969 311.473 156.707Z" fill="#F6FBD7"/>
<path d="M25.8398 159.523C25.7852 159.687 25.6758 160.645 25.5938 161.684C25.457 163.051 25.5117 163.543 25.7578 163.625C25.9492 163.68 28.8203 163.98 32.1289 164.309C35.4375 164.637 40.5781 165.156 43.5586 165.484C46.5391 165.785 49 166.004 49.0547 165.949C49.1094 165.895 49.2461 164.91 49.3555 163.762L49.5195 161.684L46.4297 161.355C31.418 159.742 25.9219 159.25 25.8398 159.523Z" fill="#F6FBD7"/>
<path d="M320.606 170.926C312.484 171.008 304.828 171.117 303.598 171.145L301.328 171.172V173.359V175.574L315.492 175.41C323.258 175.328 334.223 175.191 339.828 175.109L350 174.945V172.785V170.625L342.699 170.68C338.652 170.707 328.727 170.816 320.606 170.926Z" fill="#F6FBD7"/>
<path d="M23.8438 174.918L0 175V177.188V179.375H24.3359H48.6719V177.051C48.6719 175 48.6172 174.727 48.207 174.781C47.9336 174.836 36.9688 174.891 23.8438 174.918Z" fill="#F6FBD7"/>
<path d="M300.918 184.57C300.891 184.652 300.809 185.637 300.754 186.758L300.645 188.809L311.582 189.82C317.598 190.367 322.902 190.832 323.395 190.832L324.242 190.859L324.434 188.809C324.543 187.66 324.598 186.703 324.543 186.648C324.352 186.457 301.027 184.406 300.918 184.57Z" fill="#F6FBD7"/>
<path d="M37.4609 189.082L25.8398 190.449L25.9492 191.543C26.1133 193.758 26.3867 194.824 26.7969 194.77C27.0156 194.742 32.293 194.141 38.5 193.402L49.793 192.09L49.6016 190.312C49.4922 189.328 49.3555 188.344 49.2461 188.125C49.1094 187.77 47.6055 187.879 37.4609 189.082Z" fill="#F6FBD7"/>
<path d="M298.813 199.746C298.402 201.77 298.402 201.797 298.977 201.934C299.879 202.152 321.398 206.445 321.563 206.445C321.754 206.445 322.52 202.371 322.355 202.234C322.219 202.098 300.207 197.695 299.66 197.695C299.332 197.695 299.113 198.215 298.813 199.746Z" fill="#F6FBD7"/>
<path d="M39.9492 203.629C33.7149 205.023 28.5742 206.227 28.4922 206.309C28.4102 206.391 28.5469 207.375 28.8203 208.523C29.2305 210.191 29.3946 210.547 29.75 210.437C30.0235 210.355 34.9453 209.234 40.7422 207.949C46.5391 206.664 51.4883 205.543 51.7617 205.461C52.1992 205.324 52.2266 205.133 52.0899 204.176C51.9805 203.547 51.7344 202.617 51.5703 202.07L51.2696 201.086L39.9492 203.629Z" fill="#F6FBD7"/>
<path d="M295.613 211.941C295.313 212.898 295.039 213.855 295.039 214.102C295.039 214.402 296.023 214.84 298.676 215.66C313.496 220.281 317.543 221.512 317.68 221.375C317.762 221.266 318.09 220.336 318.445 219.297L319.047 217.383L315.164 216.18C313.059 215.496 308.055 213.937 304.063 212.707C300.07 211.477 296.68 210.41 296.516 210.355C296.324 210.301 295.941 210.957 295.613 211.941Z" fill="#F6FBD7"/>
<path d="M43.4765 217.301C37.3789 219.352 32.375 221.047 32.3476 221.074C32.2929 221.102 32.5937 222.059 32.9765 223.18L33.6601 225.258L44.789 221.566C50.914 219.516 55.9726 217.82 56.0273 217.766C56.1914 217.602 54.9062 213.555 54.7148 213.582C54.6328 213.582 49.5742 215.277 43.4765 217.301Z" fill="#F6FBD7"/>
<path d="M290.992 224.875L290.172 226.926L292.113 227.746C293.207 228.184 297.336 229.906 301.328 231.547C308.465 234.5 312.047 235.977 312.129 235.977C312.375 235.977 313.633 232.066 313.469 231.902C313.277 231.738 294.41 223.809 292.195 222.961C291.949 222.879 291.566 223.48 290.992 224.875Z" fill="#F6FBD7"/>
<path d="M50.9961 230.125C46.3477 232.312 41.5078 234.555 40.25 235.156L38.0078 236.223L38.8828 238.082C39.375 239.094 39.8125 239.996 39.8398 240.051C39.9219 240.16 60.7578 230.535 61.0859 230.207C61.3047 230.016 60.1563 227.008 59.6094 226.379C59.5273 226.27 55.6719 227.965 50.9961 230.125Z" fill="#F6FBD7"/>
<path d="M285.141 236.77L284.102 238.684L286.508 240.023C296.023 245.437 326.566 262.5 326.621 262.445C327.277 261.598 328.645 258.809 328.481 258.645C328.207 258.398 287.137 235.238 286.563 235.047C286.262 234.937 285.852 235.457 285.141 236.77Z" fill="#F6FBD7"/>
<path d="M44.4336 249.949C33.168 256.703 23.8164 262.254 23.6797 262.309C23.4062 262.391 25.4297 266.055 25.7851 266.055C25.9766 266.055 66.9375 241.828 67.3203 241.473C67.5117 241.281 65.4336 237.59 65.1328 237.645C65.0234 237.672 55.7266 243.195 44.4336 249.949Z" fill="#F6FBD7"/>
<path d="M277.84 247.98C277.211 248.883 276.719 249.676 276.719 249.758C276.719 249.812 280 252.137 284.047 254.871C288.066 257.605 292.469 260.641 293.836 261.598L296.352 263.32L297.5 261.516C298.512 260.012 298.621 259.684 298.293 259.383C297.719 258.836 279.863 246.668 279.371 246.477C279.07 246.367 278.633 246.832 277.84 247.98Z" fill="#F6FBD7"/>
<path d="M63.4375 255.582C58.543 259.273 54.3321 262.445 54.0313 262.637C53.5391 262.992 53.5938 263.102 54.7149 264.66C55.3711 265.562 56.0274 266.328 56.1641 266.328C56.3555 266.328 74.1016 253.203 75.0313 252.355C75.25 252.164 72.8711 248.801 72.5157 248.855C72.4063 248.855 68.3321 251.891 63.4375 255.582Z" fill="#F6FBD7"/>
<path d="M269.938 258.262L268.57 259.82L277.457 267.723L286.371 275.625L287.82 274.066C288.613 273.191 289.27 272.426 289.27 272.344C289.242 272.125 271.961 256.949 271.633 256.84C271.441 256.785 270.703 257.414 269.938 258.262Z" fill="#F6FBD7"/>
<path d="M72.1875 267.148C67.5937 271.496 63.8203 275.215 63.7656 275.406C63.7383 275.598 64.3398 276.391 65.1328 277.184L66.582 278.578L74.5117 271.086C78.8867 266.957 82.7422 263.266 83.125 262.91L83.7812 262.227L82.3047 260.723C81.4844 259.902 80.7461 259.219 80.664 259.219C80.582 259.219 76.7812 262.801 72.1875 267.148Z" fill="#F6FBD7"/>
<path d="M260.449 268.023L258.945 269.473L265.535 276.582C269.172 280.492 272.809 284.402 273.629 285.277L275.133 286.863L276.719 285.359L278.277 283.855L270.375 275.297C266.027 270.594 262.336 266.684 262.199 266.656C262.063 266.602 261.27 267.203 260.449 268.023Z" fill="#F6FBD7"/>
<path d="M82.2227 277.348L74.375 286.152L75.9063 287.574C76.7266 288.367 77.4922 289.023 77.6016 289.023C77.793 289.023 93.0508 271.934 93.1875 271.551C93.2148 271.414 92.5313 270.703 91.6563 269.938L90.0703 268.543L82.2227 277.348Z" fill="#F6FBD7"/>
<path d="M250.688 275.98C249.813 276.609 249.102 277.238 249.102 277.348C249.102 277.566 257.988 289.707 261.898 294.848L263.074 296.406L264.223 295.586C264.852 295.121 265.645 294.547 266 294.273L266.602 293.809L259.629 284.375C255.801 279.18 252.547 274.914 252.438 274.887C252.328 274.859 251.535 275.352 250.688 275.98Z" fill="#F6FBD7"/>
<path d="M93.4062 286.152C89.7148 291.32 86.6523 295.695 86.625 295.859C86.5703 296.023 87.3086 296.707 88.2383 297.391L89.9336 298.621L90.8906 297.309C97.5625 287.984 103.578 279.344 103.496 279.18C103.441 279.098 102.648 278.496 101.746 277.867L100.133 276.719L93.4062 286.152Z" fill="#F6FBD7"/>
<path d="M239.34 283.527C238.273 284.129 237.672 284.648 237.754 284.867C237.945 285.387 261.981 325.719 262.336 326.129C262.582 326.402 263.047 326.211 264.496 325.363C266.273 324.297 266.328 324.215 265.973 323.668C265.781 323.34 260.148 313.934 253.477 302.75C246.832 291.594 241.309 282.461 241.199 282.488C241.117 282.516 240.27 282.953 239.34 283.527Z" fill="#F6FBD7"/>
<path d="M110.633 285.277C109.047 288.012 88.0469 326.566 88.0469 326.73C88.0469 326.812 88.8945 327.332 89.9063 327.879L91.793 328.863L103.387 307.672C109.758 296.023 115.008 286.398 115.035 286.316C115.09 286.234 114.242 285.687 113.203 285.141L111.316 284.102L110.633 285.277Z" fill="#F6FBD7"/>
<path d="M227.91 289.625C226.844 290.117 225.969 290.527 225.914 290.555C225.859 290.582 235.594 311.828 235.84 312.211C235.895 312.293 239.586 310.68 239.75 310.488C239.859 310.406 231.547 292.195 230.262 289.652L229.824 288.75L227.91 289.625Z" fill="#F6FBD7"/>
<path d="M118.535 301.219C116.02 307.152 113.996 312.047 114.051 312.102C114.516 312.402 117.906 313.66 118.016 313.578C118.18 313.387 127.148 292.25 127.148 292.031C127.148 291.84 123.758 290.391 123.348 290.391C123.238 290.391 121.078 295.258 118.535 301.219Z" fill="#F6FBD7"/>
<path d="M215.469 294.52C214.648 294.793 213.828 295.094 213.637 295.176C213.418 295.258 213.992 297.281 215.496 301.656C216.727 305.156 218.449 310.187 219.352 312.812C220.254 315.437 221.047 317.652 221.102 317.707C221.156 317.762 222.113 317.461 223.207 317.051L225.258 316.312L223.672 311.773C222.797 309.258 221.047 304.227 219.789 300.59C218.531 296.926 217.41 293.945 217.246 293.973C217.109 293.973 216.289 294.219 215.469 294.52Z" fill="#F6FBD7"/>
<path d="M134.723 297.418C129.117 315.848 128.598 317.598 128.898 317.762C129.527 318.09 132.617 318.91 132.754 318.801C132.809 318.719 134.367 313.77 136.172 307.809C138.004 301.82 139.535 296.762 139.617 296.543C139.727 296.27 139.234 296.023 137.867 295.613C136.828 295.285 135.844 295.039 135.707 295.039C135.57 295.039 135.105 296.105 134.723 297.418Z" fill="#F6FBD7"/>
<path d="M202.398 298.238C201.332 298.484 200.703 298.758 200.785 298.977C200.84 299.141 202.043 304.199 203.41 310.215C204.805 316.23 205.98 321.289 206.035 321.48C206.117 321.699 206.664 321.644 208.086 321.289C209.18 321.016 210.109 320.715 210.191 320.633C210.301 320.523 205.816 300.48 205.188 298.238C205.023 297.691 204.723 297.691 202.398 298.238Z" fill="#F6FBD7"/>
<path d="M147.93 298.566C147.93 298.867 143.965 320.031 143.691 321.207C143.555 321.727 143.719 321.809 145.688 322.164C147.738 322.547 147.793 322.547 147.984 322C148.176 321.48 152.305 299.742 152.305 299.332C152.305 299.25 151.594 299.031 150.746 298.867C149.871 298.703 148.887 298.484 148.559 298.402C148.176 298.32 147.93 298.402 147.93 298.566Z" fill="#F6FBD7"/>
<path d="M189.164 300.48C188.453 300.59 187.824 300.727 187.742 300.809C187.578 300.973 190.422 323.941 190.613 324.105C190.668 324.187 191.68 324.105 192.855 323.941L194.961 323.695L194.824 322.82C194.742 322.355 194.141 317.488 193.457 311.992C192.773 306.496 192.172 301.602 192.09 301.109C191.926 300.152 191.789 300.125 189.164 300.48Z" fill="#F6FBD7"/>
<path d="M161.328 300.973C161.328 301.246 160.836 306.551 160.234 312.785C159.633 319.02 159.168 324.16 159.223 324.188C159.25 324.215 160.207 324.297 161.383 324.406L163.461 324.598L163.625 323.559C163.926 321.59 165.785 301.027 165.676 300.945C165.621 300.891 164.609 300.754 163.461 300.645C161.492 300.48 161.328 300.508 161.328 300.973Z" fill="#F6FBD7"/>
<path d="M174.453 307.562C174.453 311.008 174.535 321.945 174.645 331.898L174.809 350H176.969H179.102V342.945C179.102 339.062 179.02 328.098 178.91 318.609L178.746 301.328H176.586H174.453V307.562Z" fill="#F6FBD7"/>
</g>
<defs>
<clipPath id="clip0_217_61">
<rect width="350" height="350" fill="white"/>
</clipPath>
</defs>
</svg>
