<svg width="39" height="39" viewBox="0 0 39 39" fill="none" xmlns="http://www.w3.org/2000/svg">
<path d="M19.5 24.75C22.3996 24.75 24.75 22.3996 24.75 19.5C24.75 16.6004 22.3996 14.25 19.5 14.25C16.6004 14.25 14.25 16.6004 14.25 19.5C14.25 22.3996 16.6004 24.75 19.5 24.75Z" stroke="black" stroke-width="3.582" stroke-linecap="round" stroke-linejoin="round"/>
<path d="M32.8392 16.692L30.9182 12.0534L33.5 9L30 5.5L26.9632 8.09516L22.2262 6.14705L21.1368 2H17.7167L16.6109 6.20198L11.9827 8.15293L9 5.5L5.5 9L8.0434 12.1305L6.15187 16.781L2 17.75V21.25L6.20194 22.3971L8.15256 27.0245L5.5 30L9 33.5L12.1345 30.9455L16.6948 32.8215L17.75 37H21.25L22.3079 32.8231L26.9464 30.9021C27.7196 31.4548 30 33.5 30 33.5L33.5 30L30.9028 26.9364L32.8243 22.2965L36.9998 21.2101L37 17.75L32.8392 16.692Z" stroke="black" stroke-width="3.582" stroke-linecap="round" stroke-linejoin="round"/>
</svg>
