<svg width="37" height="37" viewBox="0 0 37 37" fill="none" xmlns="http://www.w3.org/2000/svg">
<path d="M18.5 23.75C21.3996 23.75 23.75 21.3996 23.75 18.5C23.75 15.6004 21.3996 13.25 18.5 13.25C15.6004 13.25 13.25 15.6004 13.25 18.5C13.25 21.3996 15.6004 23.75 18.5 23.75Z" stroke="#520D0D" stroke-width="2" stroke-linecap="round" stroke-linejoin="round"/>
<path d="M31.8392 15.692L29.9182 11.0534L32.5 8L29 4.5L25.9632 7.09516L21.2262 5.14705L20.1368 1H16.7167L15.6109 5.20198L10.9827 7.15293L8 4.5L4.5 8L7.0434 11.1305L5.15187 15.781L1 16.75V20.25L5.20194 21.3971L7.15256 26.0245L4.5 29L8 32.5L11.1345 29.9455L15.6948 31.8215L16.75 36H20.25L21.3079 31.8231L25.9464 29.9021C26.7196 30.4548 29 32.5 29 32.5L32.5 29L29.9028 25.9364L31.8243 21.2965L35.9998 20.2101L36 16.75L31.8392 15.692Z" stroke="#520D0D" stroke-width="2" stroke-linecap="round" stroke-linejoin="round"/>
</svg>
