<svg width="14" height="17" viewBox="0 0 14 17" fill="none" xmlns="http://www.w3.org/2000/svg">
<path d="M1 4.75L3.33333 6.25M13 12.25L10.6667 10.75M7 8.5L3.33333 6.25M7 8.5L3.33333 10.75M7 8.5V3.25M7 8.5V13.375M7 8.5L10.6667 10.75M7 8.5L10.6667 6.25M7 1V3.25M7 16V13.375M13 4.75L10.6667 6.25M1 12.25L3.33333 10.75M3.33333 6.25L1 7M3.33333 6.25L3 3.625M3.33333 10.75L1 10M3.33333 10.75L3 13.375M7 3.25L5.33333 2.5M7 3.25L8.66667 2.5M7 13.375L8.66667 14.5M7 13.375L5.33333 14.5M10.6667 10.75L11 13.375M10.6667 10.75L13 10M10.6667 6.25L13 7M10.6667 6.25L11 3.625" stroke="#1B77BA" stroke-opacity="0.75" stroke-width="0.3" stroke-linecap="round" stroke-linejoin="round"/>
</svg>
