<svg width="5" height="5" viewBox="0 0 5 5" fill="none" xmlns="http://www.w3.org/2000/svg">
<path d="M1 1.9375L1.58333 2.3125M4 3.8125L3.41667 3.4375M2.5 2.875L1.58333 2.3125M2.5 2.875L1.58333 3.4375M2.5 2.875V1.5625M2.5 2.875V4.09375M2.5 2.875L3.41667 3.4375M2.5 2.875L3.41667 2.3125M2.5 1V1.5625M2.5 4.75V4.09375M4 1.9375L3.41667 2.3125M1 3.8125L1.58333 3.4375M1.58333 2.3125L1 2.5M1.58333 2.3125L1.5 1.65625M1.58333 3.4375L1 3.25M1.58333 3.4375L1.5 4.09375M2.5 1.5625L2.08333 1.375M2.5 1.5625L2.91667 1.375M2.5 4.09375L2.91667 4.375M2.5 4.09375L2.08333 4.375M3.41667 3.4375L3.5 4.09375M3.41667 3.4375L4 3.25M3.41667 2.3125L4 2.5M3.41667 2.3125L3.5 1.65625" stroke="#1B77BA" stroke-opacity="0.392855" stroke-width="0.5" stroke-linecap="round" stroke-linejoin="round"/>
</svg>
