<svg width="19" height="21" viewBox="0 0 19 21" fill="none" xmlns="http://www.w3.org/2000/svg">
<g filter="url(#filter0_f_26_28)">
<path d="M2 6.375L4.91667 8.125M17 15.125L14.0833 13.375M9.5 10.75L4.91667 8.125M9.5 10.75L4.91667 13.375M9.5 10.75V4.625M9.5 10.75V16.4375M9.5 10.75L14.0833 13.375M9.5 10.75L14.0833 8.125M9.5 2V4.625M9.5 19.5V16.4375M17 6.375L14.0833 8.125M2 15.125L4.91667 13.375M4.91667 8.125L2 9M4.91667 8.125L4.5 5.0625M4.91667 13.375L2 12.5M4.91667 13.375L4.5 16.4375M9.5 4.625L7.41667 3.75M9.5 4.625L11.5833 3.75M9.5 16.4375L11.5833 17.75M9.5 16.4375L7.41667 17.75M14.0833 13.375L14.5 16.4375M14.0833 13.375L17 12.5M14.0833 8.125L17 9M14.0833 8.125L14.5 5.0625" stroke="#1B77BA" stroke-opacity="0.75" stroke-width="0.5" stroke-linecap="round" stroke-linejoin="round"/>
</g>
<defs>
<filter id="filter0_f_26_28" x="0.75" y="0.75" width="17.5" height="20" filterUnits="userSpaceOnUse" color-interpolation-filters="sRGB">
<feFlood flood-opacity="0" result="BackgroundImageFix"/>
<feBlend mode="normal" in="SourceGraphic" in2="BackgroundImageFix" result="shape"/>
<feGaussianBlur stdDeviation="0.5" result="effect1_foregroundBlur_26_28"/>
</filter>
</defs>
</svg>
