<svg width="10" height="12" viewBox="0 0 10 12" fill="none" xmlns="http://www.w3.org/2000/svg">
<path d="M1 3.5L2.55556 4.5M9 8.5L7.44444 7.5M5 6L2.55556 4.5M5 6L2.55556 7.5M5 6V2.5M5 6V9.25M5 6L7.44444 7.5M5 6L7.44444 4.5M5 1V2.5M5 11V9.25M9 3.5L7.44444 4.5M1 8.5L2.55556 7.5M2.55556 4.5L1 5M2.55556 4.5L2.33333 2.75M2.55556 7.5L1 7M2.55556 7.5L2.33333 9.25M5 2.5L3.88889 2M5 2.5L6.11111 2M5 9.25L6.11111 10M5 9.25L3.88889 10M7.44444 7.5L7.66667 9.25M7.44444 7.5L9 7M7.44444 4.5L9 5M7.44444 4.5L7.66667 2.75" stroke="#1B77BA" stroke-opacity="0.75" stroke-width="0.5" stroke-linecap="round" stroke-linejoin="round"/>
</svg>
