<svg width="12" height="14" viewBox="0 0 12 14" fill="none" xmlns="http://www.w3.org/2000/svg">
<path d="M1 4.125L2.94444 5.375M11 10.375L9.05556 9.125M6 7.25L2.94444 5.375M6 7.25L2.94444 9.125M6 7.25V2.875M6 7.25V11.3125M6 7.25L9.05556 9.125M6 7.25L9.05556 5.375M6 1V2.875M6 13.5V11.3125M11 4.125L9.05556 5.375M1 10.375L2.94444 9.125M2.94444 5.375L1 6M2.94444 5.375L2.66667 3.1875M2.94444 9.125L1 8.5M2.94444 9.125L2.66667 11.3125M6 2.875L4.61111 2.25M6 2.875L7.38889 2.25M6 11.3125L7.38889 12.25M6 11.3125L4.61111 12.25M9.05556 9.125L9.33333 11.3125M9.05556 9.125L11 8.5M9.05556 5.375L11 6M9.05556 5.375L9.33333 3.1875" stroke="#1B77BA" stroke-opacity="0.392855" stroke-linecap="round" stroke-linejoin="round"/>
</svg>
