<svg width="7" height="8" viewBox="0 0 7 8" fill="none" xmlns="http://www.w3.org/2000/svg">
<path d="M1 2.5625L1.97222 3.1875M6 5.6875L5.02778 5.0625M3.5 4.125L1.97222 3.1875M3.5 4.125L1.97222 5.0625M3.5 4.125V1.9375M3.5 4.125V6.15625M3.5 4.125L5.02778 5.0625M3.5 4.125L5.02778 3.1875M3.5 1V1.9375M3.5 7.25V6.15625M6 2.5625L5.02778 3.1875M1 5.6875L1.97222 5.0625M1.97222 3.1875L1 3.5M1.97222 3.1875L1.83333 2.09375M1.97222 5.0625L1 4.75M1.97222 5.0625L1.83333 6.15625M3.5 1.9375L2.80556 1.625M3.5 1.9375L4.19444 1.625M3.5 6.15625L4.19444 6.625M3.5 6.15625L2.80556 6.625M5.02778 5.0625L5.16667 6.15625M5.02778 5.0625L6 4.75M5.02778 3.1875L6 3.5M5.02778 3.1875L5.16667 2.09375" stroke="#094C7D" stroke-opacity="0.75" stroke-width="0.5" stroke-linecap="round" stroke-linejoin="round"/>
</svg>
